<?xml version="1.0" encoding="UTF-8"?>
<svg id="Laag_3" data-name="Laag 3" xmlns="http://www.w3.org/2000/svg" viewBox="0 0 102 107.5">
  <defs>
    <style>
      .cls-1 {
        fill: #fff;
        stroke-width: 0px;
      }
    </style>
  </defs>
  <path class="cls-1" d="M87.2,43.8c0,2.6-1.9,4.3-5,4.4-7.7.2-14.6,2.5-20.6,7.2-8.7,6.8-13.3,15.8-13.7,26.8-.1,3.2-1.7,5.2-4.3,5.2s-4.3-1.9-4.4-5.1c-.5-18.8-15.3-33.6-34.2-34.2C1.9,48,0,46.4,0,43.8c-.1-2.6,1.9-4.4,5.1-4.5,18.9-.6,33.7-15.3,34.2-34.2.1-3.2,1.8-5.1,4.4-5.1s4.2,2,4.3,5c.6,19,15.2,33.6,34.3,34.3,3,.3,4.9,2,4.9,4.5ZM23.3,43.8c9.1,4.6,15.6,11.3,20.2,20.2,4.7-9.1,11.3-15.6,20.2-20.2-9.1-4.6-15.6-11.2-20.2-20.1-4.6,8.9-11.2,15.5-20.2,20.1Z"/>
  <circle class="cls-1" cx="82.4" cy="5.8" r="5.7"/>
  <circle class="cls-1" cx="91.8" cy="97.3" r="10.2"/>
  <circle class="cls-1" cx="9.2" cy="75.7" r="5.1"/>
</svg>