<?xml version="1.0" encoding="utf-8"?>
<!-- Generator: Adobe Illustrator 28.2.0, SVG Export Plug-In . SVG Version: 6.00 Build 0)  -->
<svg version="1.1" id="Laag_3" xmlns="http://www.w3.org/2000/svg" xmlns:xlink="http://www.w3.org/1999/xlink" x="0px" y="0px"
	 viewBox="0 0 141.7 141.7" style="enable-background:new 0 0 141.7 141.7;" xml:space="preserve">
<style type="text/css">
	.st0{fill:#2AD8C2;}
</style>
<g>
	<path class="st0" d="M110.1,60.8c0,2.6-1.9,4.3-5,4.4c-7.7,0.2-14.6,2.5-20.6,7.2c-8.7,6.8-13.3,15.8-13.7,26.8
		c-0.1,3.2-1.7,5.2-4.3,5.2c-2.6,0-4.3-1.9-4.4-5.1c-0.5-18.8-15.3-33.6-34.2-34.2c-3.1-0.1-5-1.7-5-4.3c-0.1-2.6,1.9-4.4,5.1-4.5
		c18.9-0.6,33.7-15.3,34.2-34.2c0.1-3.2,1.8-5.1,4.4-5.1c2.6,0,4.2,2,4.3,5c0.6,19,15.2,33.6,34.3,34.3
		C108.2,56.6,110.1,58.3,110.1,60.8z M46.2,60.8c9.1,4.6,15.6,11.3,20.2,20.2c4.7-9.1,11.3-15.6,20.2-20.2
		c-9.1-4.6-15.6-11.2-20.2-20.1C61.8,49.6,55.2,56.2,46.2,60.8z"/>
	<circle class="st0" cx="105.3" cy="22.8" r="5.7"/>
	<circle class="st0" cx="114.7" cy="114.3" r="10.2"/>
	<circle class="st0" cx="32.1" cy="92.7" r="5.1"/>
</g>
</svg>
