<?xml version="1.0" encoding="UTF-8"?>
<svg id="Layer_2" data-name="Layer 2" xmlns="http://www.w3.org/2000/svg" viewBox="0 0 57.8 40.6">
  <defs>
    <style>
      .cls-1 {
        fill: #fff;
        stroke-width: 0px;
      }
    </style>
  </defs>
  <g id="Layer_1-2" data-name="Layer 1">
    <g id="Laag_3" data-name="Laag 3">
      <polygon class="cls-1" points="35 .9 25.5 .9 25.5 21.7 9.6 8.2 9.6 8.2 .1 0 0 0 0 40.4 9.6 40.4 9.6 18.6 34.9 40.6 35 40.6 35 .9"/>
      <path class="cls-1" d="M55.3,7.3c0,.4-.3.7-.8.7-1.3,0-2.4.4-3.4,1.2-1.4,1.1-2.2,2.6-2.3,4.4,0,.5-.3.9-.7.9s-.7-.3-.7-.8c-.1-3.1-2.5-5.6-5.7-5.7-.5,0-.8-.3-.8-.7s.3-.7.8-.7c3.1-.1,5.6-2.5,5.7-5.7,0-.5.3-.8.7-.8s.7.3.7.8c.1,3.2,2.5,5.6,5.7,5.7.5-.1.8.2.8.7ZM44.8,7.3c1.5.8,2.6,1.9,3.3,3.3.8-1.5,1.9-2.6,3.3-3.3-1.5-.8-2.6-1.9-3.3-3.3-.8,1.4-1.8,2.5-3.3,3.3Z"/>
      <circle class="cls-1" cx="54.5" cy="1" r=".9"/>
      <circle class="cls-1" cx="56.1" cy="16.1" r="1.7"/>
      <circle class="cls-1" cx="42.4" cy="12.5" r=".8"/>
    </g>
  </g>
</svg>