<?xml version="1.0" encoding="UTF-8"?>
<svg id="Laag_1" data-name="Laag 1" xmlns="http://www.w3.org/2000/svg" viewBox="0 0 24 24">
    <defs>
        <style>
            .cls-1 {
            fill: #ffffff;
            stroke-width: 0px;
            }
        </style>
    </defs>
    <g transform="translate(5.305 2.29)"> <!-- Adjust the translate values to center -->
        <path class="cls-1" d="M6.02,19.42c-.52-.09-1.03-.17-1.52-.36-2.44-.94-3.93-2.69-4.39-5.27-.24-1.36-.02-2.69.35-4,.6-2.13,1.6-4.07,2.81-5.91.84-1.27,1.76-2.46,2.81-3.56.4-.42.85-.43,1.25,0,1.52,1.61,2.8,3.4,3.88,5.33.8,1.44,1.45,2.94,1.85,4.55.24.99.38,1.98.32,3-.1,1.47-.62,2.77-1.58,3.89-1.14,1.33-2.59,2.1-4.34,2.32-.03,0-.05.02-.07.02-.45,0-.91,0-1.36,0ZM6.74,17.9c.09-.01.2-.02.31-.03,1.58-.12,2.84-.83,3.79-2.09.94-1.25,1.13-2.67.92-4.17-.2-1.39-.66-2.69-1.26-3.95-.97-2.01-2.23-3.84-3.65-5.55-.11-.13-.16-.13-.26,0-.82.99-1.58,2.01-2.28,3.09-1.01,1.58-1.87,3.23-2.36,5.06-.29,1.07-.46,2.15-.3,3.25.33,2.35,2.35,4.34,5.1,4.38Z"/>
        <path class="cls-1" d="M6.83,16.4c-.57.02-.91-.29-.9-.8.01-.38.32-.71.71-.73.45-.03.88-.12,1.25-.38.62-.44.9-1.05.93-1.8.02-.37.33-.68.69-.7.42-.03.77.23.83.61.04.28.01.56-.04.83-.31,1.59-1.59,2.78-3.2,2.97-.09.01-.18,0-.27,0Z"/>
    </g>
</svg>
